<svg viewBox="0 0 737 279" xmlns="http://www.w3.org/2000/svg">
<g clip-path="url(#clip0)">
<path d="M445.8 278.61V78.8C445.8 74.8 444.21 68.06 439.04 68.06C430.68 68.06 427.09 85.17 425.11 97.92C419.54 132.53 404.81 178.31 368.98 178.31C333.15 178.31 318.43 132.53 312.86 97.92C310.86 85.17 307.29 68.06 298.93 68.06C293.76 68.06 292.17 74.83 292.17 78.8V278.61H246V0H323.22L356.22 106.27C358.6 114.27 362.22 124.18 368.95 124.18C375.68 124.18 379.3 114.18 381.69 106.27L414.75 0H492V278.61H445.8Z" fill="black"/>
</g>
<g clip-path="url(#clip1)">
<path d="M201.8 278.61V78.8C201.8 74.8 200.21 68.06 195.04 68.06C186.68 68.06 183.09 85.17 181.11 97.92C175.54 132.53 160.81 178.31 124.98 178.31C89.15 178.31 74.43 132.53 68.86 97.92C66.86 85.17 63.29 68.06 54.93 68.06C49.76 68.06 48.17 74.83 48.17 78.8V278.61H2V0H79.22L112.22 106.27C114.6 114.27 118.22 124.18 124.95 124.18C131.68 124.18 135.3 114.18 137.69 106.27L170.75 0H248V278.61H201.8Z" fill="black"/>
</g>
<g clip-path="url(#clip2)">
<path d="M690.8 278.61V78.8C690.8 74.8 689.21 68.06 684.04 68.06C675.68 68.06 672.09 85.17 670.11 97.92C664.54 132.53 649.81 178.31 613.98 178.31C578.15 178.31 563.43 132.53 557.86 97.92C555.86 85.17 552.29 68.06 543.93 68.06C538.76 68.06 537.17 74.83 537.17 78.8V278.61H491V0H568.22L601.22 106.27C603.6 114.27 607.22 124.18 613.95 124.18C620.68 124.18 624.3 114.18 626.69 106.27L659.75 0H737V278.61H690.8Z" fill="black"/>
</g>
<defs>
<clipPath id="clip0">
<rect width="245.97" height="278.61" fill="white" transform="translate(246)"/>
</clipPath>
<clipPath id="clip1">
<rect width="245.97" height="278.61" fill="white" transform="translate(1)"/>
</clipPath>
<clipPath id="clip2">
<rect width="245.97" height="278.61" fill="white" transform="translate(491)"/>
</clipPath>
</defs>
</svg>
