<svg xmlns="http://www.w3.org/2000/svg" viewBox="0 0 385.13 111.18"><defs><style>.cls-1{fill:#5f88cc;}</style></defs><g id="Layer_2" data-name="Layer 2"><g id="Layer_1-2" data-name="Layer 1"><path class="cls-1" d="M76.84,110V33.11c0-1.52-.61-4.13-2.6-4.13-3.21,0-4.59,6.58-5.36,11.48-2.14,13.32-7.8,30.92-21.58,30.92S27.86,53.78,25.71,40.46C25,35.56,23.57,29,20.36,29c-2,0-2.6,2.61-2.6,4.13V110H0V2.81H29.7L42.4,43.68c.92,3.06,2.3,6.88,4.9,6.88s4-3.82,4.9-6.88L64.9,2.81H94.6V110Z"/><path class="cls-1" d="M118.89,0a11,11,0,0,1,11,11.17,11,11,0,0,1-22,0A11,11,0,0,1,118.89,0Zm8,32.88V110h-15.9V32.88Z"/><path class="cls-1" d="M143.47,32.88h12.85V11.62l15.9-9.94v31.2h20V47h-20V84.57c0,8.72,3.22,12.54,10.25,12.54A12.36,12.36,0,0,0,189.81,95l4.13,13.46a27.55,27.55,0,0,1-12.39,2.75c-14.52,0-25.23-8.56-25.23-27.53V47H143.47Z"/><path class="cls-1" d="M273.2,75.86H218.6c0,11.31,6.58,21.25,19.12,21.25a22.22,22.22,0,0,0,20.19-13l13.61,5.36c-7.5,14.53-16.21,21.71-33.8,21.71-25.39,0-35.94-21.41-35.94-39.76s10.55-39.76,35.94-39.76c24.62,0,35.48,20,35.48,37.31ZM218.91,62.55h37.47C255,54,249.19,45.73,237.72,45.73,227.17,45.73,220.59,52.92,218.91,62.55Z"/><path class="cls-1" d="M297.37,0a11,11,0,0,1,11,11.17,11,11,0,0,1-22,0A11,11,0,0,1,297.37,0Zm8,32.88V110H289.42V32.88Z"/><path class="cls-1" d="M337.57,32.88V46A28.68,28.68,0,0,1,362.5,31.66c13.45,0,22.63,8.1,22.63,23.09V110h-15.9V59.8c0-10.4-4.74-14.07-11.93-14.07-9.94,0-19.73,11.77-19.73,33V110H321.66V32.88Z"/></g></g></svg>