<svg xmlns="http://www.w3.org/2000/svg" viewBox="0 0 781.73 137.11"><defs><style>.cls-1{fill:#f2ede1;}</style></defs><g id="Layer_2" data-name="Layer 2"><g id="Layer_1-2" data-name="Layer 1"><path class="cls-1" d="M76.82,109.92V33.1c0-1.53-.61-4.13-2.6-4.13-3.22,0-4.59,6.58-5.36,11.48-2.14,13.31-7.8,30.91-21.58,30.91S27.85,53.76,25.71,40.45C24.94,35.55,23.56,29,20.35,29c-2,0-2.6,2.6-2.6,4.13v76.82H0V2.8H29.69l12.7,40.86c.91,3.06,2.29,6.89,4.89,6.89s4-3.83,4.9-6.89L64.88,2.8H94.57V109.92Z"/><path class="cls-1" d="M118.85,0a11,11,0,0,1,11,11.16,11,11,0,0,1-22,0A11,11,0,0,1,118.85,0Zm8,32.87v77.05H110.9V32.87Z"/><path class="cls-1" d="M143.42,32.87h12.84V11.62l15.91-9.94V32.87h20V46.94h-20v37.6c0,8.72,3.21,12.54,10.24,12.54a12.38,12.38,0,0,0,7.34-2.14l4.13,13.45a27.56,27.56,0,0,1-12.39,2.76c-14.52,0-25.23-8.56-25.23-27.52V46.94H143.42Z"/><path class="cls-1" d="M272.9,75.83H218.32c0,11.31,6.57,21.25,19.1,21.25a22.23,22.23,0,0,0,20.19-13l13.6,5.35c-7.49,14.52-16.2,21.71-33.79,21.71-25.37,0-35.92-21.41-35.92-39.75s10.55-39.75,35.92-39.75c24.62,0,35.48,20,35.48,37.3Zm-54.28-13.3h37.46c-1.38-8.56-7.19-16.82-18.66-16.82C226.88,45.71,220.3,52.9,218.62,62.53Z"/><path class="cls-1" d="M297.06,0a11,11,0,0,1,11,11.16,11,11,0,0,1-22,0A11,11,0,0,1,297.06,0ZM305,32.87v77.05h-15.9V32.87Z"/><path class="cls-1" d="M337.25,32.87V46a28.64,28.64,0,0,1,24.91-14.37c13.46,0,22.63,8.1,22.63,23.08v55.19h-15.9V59.78c0-10.4-4.74-14.07-11.93-14.07-9.93,0-19.71,11.77-19.71,33v31.19H321.34V32.87Z"/><path class="cls-1" d="M433.57,62.53h13.3V59.16c0-9.63-6.88-13.45-15-13.45-6.27,0-11.77,3.37-14.37,10.24L403,52.9c3.21-13,14.21-21.25,29-21.25,17.89,0,30.73,7.79,30.73,30.42v47.85H449.32l-1.53-10.09c-5.05,7-13,11.32-23.85,11.32-12.84,0-23.69-7.34-23.69-23.4C400.25,71.85,413.85,62.53,433.57,62.53Zm-6.88,34.55c9.79,0,20.18-6.27,20.18-19.57V75.83H433c-9.79,0-15.9,4.59-15.9,11.92C417.06,93,420,97.08,426.69,97.08Z"/><path class="cls-1" d="M495.62,32.87V46a28.66,28.66,0,0,1,24.92-14.37c13.45,0,22.63,8.1,22.63,23.08v55.19H527.26V59.78c0-10.4-4.73-14.07-11.92-14.07-9.93,0-19.72,11.77-19.72,33v31.19h-15.9V32.87Z"/><path class="cls-1" d="M594.73,31.65c7.64,0,17.12,4.74,20.64,9.78V1.68h15.9V109.92h-15.9v-8.87c-2.6,4.44-10.86,10.1-21,10.1C571.65,111.15,560,96,560,71.4,560,47.55,571.65,31.65,594.73,31.65Zm1.83,65.43c11.47,0,19.73-9.78,19.73-25.68S608,45.71,596.56,45.71,576.84,55.5,576.84,71.4,585.1,97.08,596.56,97.08Z"/><path class="cls-1" d="M718.57,75.83H664c0,11.31,6.58,21.25,19.12,21.25a22.22,22.22,0,0,0,20.18-13l13.6,5.35c-7.49,14.52-16.2,21.71-33.78,21.71-25.38,0-35.93-21.41-35.93-39.75s10.55-39.75,35.93-39.75c24.61,0,35.46,20,35.46,37.3ZM664.3,62.53h37.46c-1.38-8.56-7.19-16.82-18.65-16.82C672.56,45.71,666,52.9,664.3,62.53Z"/><path class="cls-1" d="M733.26,109.92V32.87h15.9V45.71c5.35-9.17,14.52-14.06,22.78-14.06a26.49,26.49,0,0,1,9.79,1.83L779,48a17.57,17.57,0,0,0-9-2.3c-10.24,0-20.79,11.31-20.79,35.62v28.59Z"/><rect class="cls-1" y="128.11" width="384.79" height="9"/></g></g></svg>