<svg width="704" height="704" viewBox="0 0 704 704" fill="none" xmlns="http://www.w3.org/2000/svg">
<path d="M290.307 241.374C285.003 232.087 273.341 229.391 264.437 234.813L249.108 241.777V203.584C249.108 190.65 239.162 180.166 226.894 180.166H173.274C161.006 180.166 151.061 190.65 151.061 203.584V287.245C151.061 298.27 159.365 307.228 169.737 307.604V341.935H230.432V307.604C236.914 307.369 242.589 303.782 245.932 298.433C251.475 289.566 258.738 282.043 267.703 277.2L283.649 268.587C292.681 263.088 295.709 250.836 290.307 241.374Z" fill="#FFE5C2"/>
<path d="M169.737 341.935H196.654V297.95C196.654 294.631 194.681 291.578 191.67 290.61C183.746 288.064 177.98 280.31 177.98 271.124V242.627C174.49 240.817 172.083 237.044 172.083 232.668V180.229C160.373 180.887 151.062 191.075 151.062 203.584V287.245C151.062 298.27 159.366 307.228 169.738 307.604V341.935H169.737Z" fill="#FED2A4"/>
<path d="M239.769 391.054V345.029C239.769 342.502 237.825 340.453 235.428 340.453H164.739C162.342 340.453 160.398 342.502 160.398 345.029V391.054H239.769Z" fill="#FEDF30"/>
<path d="M196.939 391.054V345.029C196.939 342.502 198.883 340.453 201.28 340.453H164.74C162.343 340.453 160.399 342.502 160.399 345.029V391.054H196.939Z" fill="#FED402"/>
<path d="M520.13 16.0542H500.888C508.146 25.6783 512.723 39.6378 512.723 55.1548V102.66H516.851C526.557 102.66 534.426 114.296 534.426 128.648V155.581H544.878C551.856 155.581 558.204 159.551 563 166V79.445C563 44.4348 543.806 16.0542 520.13 16.0542Z" fill="#723F2C"/>
<path d="M359 18.0835V166C364.908 159.559 372.726 155.596 381.323 155.596H394.198V128.703C394.198 114.372 403.89 102.753 415.846 102.753H519V54.2551C519 24.2905 498.736 2.08682e-07 473.738 2.08682e-07H374.089C365.756 -0.00150087 359 8.09533 359 18.0835V18.0835Z" fill="#63391C"/>
<path d="M397.613 18.0849C397.613 8.09676 400.839 0 404.819 0H384.206C380.226 0 377 8.09676 377 18.0849V166C379.822 159.559 383.556 155.596 387.662 155.596H393.811V128.703C393.811 120.599 395.294 113.365 397.613 108.607V18.0849Z" fill="#63391C"/>
<path d="M382.474 391.054C392.822 391.054 401.857 398.806 403.956 409.489L453.245 660.128H647.514V421.128C647.514 371.873 609.638 331.943 562.917 331.943H363.271C326.562 331.943 295.326 356.599 283.62 391.054H382.474Z" fill="#FEDF30"/>
<path d="M351.478 389.573C363.568 355.896 394.428 331.943 430.607 331.943H363.271C327.091 331.943 296.232 355.896 284.142 389.573H351.478Z" fill="#FED402"/>
<path d="M591.488 459.643C585.671 459.643 580.956 464.613 580.956 470.746V604.798C580.956 607.085 579.19 608.946 577.021 608.946H553.704C558.629 611.286 562.071 616.5 562.071 622.553V631.153H577.021C590.805 631.153 602.02 619.33 602.02 604.798V470.746C602.02 464.613 597.304 459.643 591.488 459.643V459.643Z" fill="#FAC600"/>
<path d="M478.95 306.139H447.24C440.19 306.139 433.386 305.006 426.983 302.904V346.709C426.983 367.735 443.15 384.78 463.094 384.78C483.038 384.78 499.206 367.735 499.206 346.709V302.904C492.804 305.005 486 306.139 478.95 306.139V306.139Z" fill="#FED2A4"/>
<path d="M463.239 346.709V306.137H447.24C440.19 306.137 433.386 305.005 426.983 302.902V346.708C426.983 367.734 443.15 384.778 463.094 384.778C469.704 384.778 475.893 382.897 481.222 379.629C470.471 373.037 463.239 360.767 463.239 346.709V346.709Z" fill="#FFBD86"/>
<path d="M395.94 144H384.345C367.034 144 353 156.536 353 172C353 187.464 367.034 200 384.345 200H395.94V144Z" fill="#FFBD86"/>
<path d="M542.655 144H531.06V200H542.655C559.966 200 574 187.464 574 172C574 156.536 559.966 144 542.655 144V144Z" fill="#FED2A4"/>
<path d="M478.95 307.976H447.24C408.577 307.976 377.233 274.933 377.233 234.172V126.937C377.233 111.787 388.881 99.5067 403.252 99.5067H522.938C537.309 99.5067 548.957 111.787 548.957 126.937V234.172C548.957 274.932 517.613 307.976 478.95 307.976V307.976Z" fill="#FFE5C2"/>
<path d="M417.265 234.172V126.937C417.265 111.787 428.914 99.5067 443.284 99.5067H403.252C388.881 99.5067 377.233 111.787 377.233 126.937V234.172C377.233 274.932 408.575 307.976 447.24 307.976H478.95C480.348 307.976 481.734 307.92 483.111 307.835C446.386 305.563 417.265 273.459 417.265 234.172V234.172Z" fill="#FED2A4"/>
<path d="M430.562 234.588V239.136C430.562 254.58 442.439 267.099 457.087 267.099H469.102C483.752 267.099 495.626 254.578 495.626 239.136V234.588C495.626 230.376 492.388 226.962 488.393 226.962H437.794C433.801 226.962 430.562 230.376 430.562 234.588V234.588Z" fill="white" fill-opacity="0.72"/>
<path d="M425.872 188.228C420.055 188.228 415.34 183.258 415.34 177.125V155.181C415.34 149.048 420.055 144.078 425.872 144.078C431.689 144.078 436.404 149.048 436.404 155.181V177.125C436.404 183.258 431.689 188.228 425.872 188.228Z" fill="#D88A55"/>
<path d="M500.318 188.228C494.501 188.228 489.786 183.258 489.786 177.125V155.181C489.786 149.048 494.501 144.078 500.318 144.078C506.135 144.078 510.85 149.048 510.85 155.181V177.125C510.85 183.258 506.135 188.228 500.318 188.228Z" fill="#D88A55"/>
<path d="M563.475 660.128V622.552C563.475 613.49 556.507 606.145 547.912 606.145H442.629L453.245 660.128H563.475Z" fill="#DDDDDD"/>
<path d="M71.2519 658.647L82.7629 660.128H453.245L454.388 658.647L405.331 409.188C403.084 397.765 393.539 389.573 382.474 389.573H37.4589C27.5937 389.573 20.2169 399.127 22.2195 409.311L71.2519 658.647Z" fill="#E9E7E7"/>
<path d="M98.279 389.573H37.4589C27.5937 389.573 20.2169 399.127 22.2195 409.311L71.2519 658.647H132.072L83.041 409.311C81.037 399.127 88.4138 389.573 98.279 389.573Z" fill="#DDDDDD"/>
<path d="M696.917 704H7.08263C3.17075 704 0 700.854 0 696.973V665.674C0 661.793 3.17075 658.647 7.08263 658.647H696.917C700.829 658.647 704 661.793 704 665.674V696.973C704 700.854 700.829 704 696.917 704Z" fill="#C19280"/>
<path d="M182.614 243.771C188.431 243.771 193.146 238.801 193.146 232.668V180.166H173.274C172.871 180.166 172.479 180.207 172.082 180.229V232.668C172.082 238.8 176.797 243.771 182.614 243.771Z" fill="#FFBD86"/>
<path d="M214.441 243.771C220.258 243.771 224.973 238.801 224.973 232.668V180.166H203.909V232.668C203.909 238.8 208.624 243.771 214.441 243.771Z" fill="#FFBD86"/>
<path d="M279.4 16.2378H16.1038C8.11334 16.2378 1.63672 23.0657 1.63672 31.4896V100.858C1.63672 109.282 8.11334 116.11 16.1038 116.11H216.366C218.285 116.11 220.124 116.914 221.481 118.344L250.29 148.716C253.024 151.599 257.699 149.557 257.699 145.481V120.685C257.699 118.158 259.643 116.109 262.04 116.109H279.4C287.39 116.109 293.867 109.281 293.867 100.857V31.4881C293.867 23.0657 287.389 16.2378 279.4 16.2378V16.2378Z" fill="#73D773"/>
<path d="M241.683 77.2775H53.8204C48.0038 77.2775 43.2882 72.3076 43.2882 66.174C43.2882 60.0404 48.0038 55.0705 53.8204 55.0705H241.682C247.498 55.0705 252.214 60.0404 252.214 66.174C252.214 72.3076 247.5 77.2775 241.683 77.2775V77.2775Z" fill="#6BC16B"/>
</svg>
