<svg width="462" height="512" viewBox="0 0 462 512" fill="none" xmlns="http://www.w3.org/2000/svg">
<path d="M461.245 82.4145V161.738H0.754517V82.4145C0.754517 70.5571 7.43009 60.2553 17.2374 55.0838C21.5436 52.7968 26.4472 51.5091 31.6599 51.5091H430.34C442.197 51.5091 452.499 58.1846 457.671 67.992C459.958 72.2981 461.245 77.2018 461.245 82.4145Z" fill="#FD646F"/>
<path d="M124.376 51.5091V109.199C124.376 114.886 119.761 119.501 114.074 119.501H66.6861C60.9995 119.501 56.3843 114.886 56.3843 109.199V51.5091H124.376Z" fill="#FC4755"/>
<path d="M389.133 51.5091V109.199C389.133 114.886 384.518 119.501 378.831 119.501H331.443C325.756 119.501 321.141 114.886 321.141 109.199V51.5091H389.133Z" fill="#FC4755"/>
<path d="M17.2374 55.0838V161.738H0.754517V82.4145C0.754517 70.5571 7.43009 60.2553 17.2374 55.0838Z" fill="#FC4755"/>
<path d="M85.2294 223.364H138.232C141.077 223.364 143.383 225.67 143.383 228.515V281.518C143.383 284.362 141.077 286.668 138.232 286.668H85.2294C82.3851 286.668 80.0785 284.362 80.0785 281.518V228.515C80.0785 225.67 82.3851 223.364 85.2294 223.364V223.364Z" fill="#E6E6E6"/>
<path d="M85.2294 302.121H138.232C141.077 302.121 143.383 304.428 143.383 307.272V360.285C143.383 363.13 141.077 365.436 138.232 365.436H85.2294C82.3851 365.436 80.0785 363.13 80.0785 360.285V307.272C80.0785 304.428 82.3851 302.121 85.2294 302.121V302.121Z" fill="#E6E6E6"/>
<path d="M85.2294 380.889H138.232C141.077 380.889 143.383 383.195 143.383 386.04V439.043C143.383 441.887 141.077 444.193 138.232 444.193H85.2294C82.3851 444.193 80.0785 441.887 80.0785 439.043V386.04C80.0785 383.195 82.3851 380.889 85.2294 380.889V380.889Z" fill="#E6E6E6"/>
<path d="M163.987 223.364H218.123C220.967 223.364 223.274 225.67 223.274 228.515V281.518C223.274 284.362 220.967 286.668 218.123 286.668H163.987C161.142 286.668 158.836 284.362 158.836 281.518V228.515C158.836 225.67 161.142 223.364 163.987 223.364Z" fill="#E6E6E6"/>
<path d="M163.987 302.121H218.123C220.967 302.121 223.274 304.428 223.274 307.272V360.285C223.274 363.13 220.967 365.436 218.123 365.436H163.987C161.142 365.436 158.836 363.13 158.836 360.285V307.272C158.836 304.428 161.142 302.121 163.987 302.121Z" fill="#E6E6E6"/>
<path d="M163.987 380.889H218.123C220.967 380.889 223.274 383.195 223.274 386.04V439.043C223.274 441.887 220.967 444.193 218.123 444.193H163.987C161.142 444.193 158.836 441.887 158.836 439.043V386.04C158.836 383.195 161.142 380.889 163.987 380.889Z" fill="#E6E6E6"/>
<path d="M243.877 223.364H298.013C300.858 223.364 303.164 225.67 303.164 228.515V281.518C303.164 284.362 300.858 286.668 298.013 286.668H243.877C241.033 286.668 238.726 284.362 238.726 281.518V228.515C238.726 225.67 241.033 223.364 243.877 223.364Z" fill="#E6E6E6"/>
<path d="M243.877 302.121H298.013C300.858 302.121 303.164 304.428 303.164 307.272V360.285C303.164 363.13 300.858 365.436 298.013 365.436H243.877C241.033 365.436 238.726 363.13 238.726 360.285V307.272C238.726 304.428 241.033 302.121 243.877 302.121Z" fill="#E6E6E6"/>
<path d="M243.877 380.889H298.013C300.858 380.889 303.164 383.195 303.164 386.04V439.043C303.164 441.887 300.858 444.193 298.013 444.193H243.877C241.033 444.193 238.726 441.887 238.726 439.043V386.04C238.726 383.195 241.033 380.889 243.877 380.889Z" fill="#E6E6E6"/>
<path d="M381.922 228.515V281.518C381.922 284.362 379.615 286.668 376.771 286.668H323.768C320.923 286.668 318.617 284.362 318.617 281.518V228.515C318.617 225.67 320.923 223.364 323.768 223.364H376.771C379.615 223.364 381.922 225.67 381.922 228.515Z" fill="#E6E6E6"/>
<path d="M323.768 302.121H376.771C379.615 302.121 381.922 304.428 381.922 307.272V360.285C381.922 363.13 379.615 365.436 376.771 365.436H323.768C320.923 365.436 318.617 363.13 318.617 360.285V307.272C318.617 304.428 320.923 302.121 323.768 302.121Z" fill="#E6E6E6"/>
<path d="M323.768 380.889H376.771C379.615 380.889 381.922 383.195 381.922 386.04V439.043C381.922 441.887 379.615 444.193 376.771 444.193H323.768C320.923 444.193 318.617 441.887 318.617 439.043V386.04C318.617 383.195 320.923 380.889 323.768 380.889Z" fill="#E6E6E6"/>
<path d="M0.754517 154.527V481.095C0.754517 498.165 14.5898 512 31.6599 512H430.34C447.41 512 461.245 498.165 461.245 481.095V154.527H0.754517Z" fill="#F5F5F5"/>
<path d="M124.376 10.3018V92.7163C124.376 98.4029 119.761 103.018 114.074 103.018H83.169C77.4824 103.018 72.8672 98.4029 72.8672 92.7163V10.3018C72.8672 4.61523 77.4824 1.52588e-05 83.169 1.52588e-05H114.074C119.761 1.52588e-05 124.376 4.61523 124.376 10.3018Z" fill="#50758D"/>
<path d="M80.0785 223.364H143.383V286.668H80.0785V223.364Z" fill="#E6E6E6"/>
<path d="M318.617 223.364H381.921V286.668H318.617V223.364Z" fill="#6BC16B"/>
<path d="M158.836 223.364H223.274V286.668H158.836V223.364Z" fill="#6BC16B"/>
<path d="M80.0785 302.121H143.383V365.436H80.0785V302.121Z" fill="#6BC16B"/>
<path d="M318.617 302.121H381.921V365.436H318.617V302.121Z" fill="#6BC16B"/>
<path d="M158.836 302.121H223.274V365.436H158.836V302.121Z" fill="#6BC16B"/>
<path d="M80.0785 380.889H143.383V444.193H80.0785V380.889Z" fill="#6BC16B"/>
<path d="M318.617 380.889H381.921V444.193H318.617V380.889Z" fill="#6BC16B"/>
<path d="M158.836 380.889H223.274V444.193H158.836V380.889Z" fill="#6BC16B"/>
<path d="M238.726 223.364H303.164V286.668H238.726V223.364Z" fill="#E6E6E6"/>
<path d="M238.726 302.121H303.164V365.436H238.726V302.121Z" fill="#6BC16B"/>
<path d="M238.726 380.889H303.164V444.193H238.726V380.889Z" fill="#6BC16B"/>
<path d="M389.133 10.3018V92.7163C389.133 98.4029 384.518 103.018 378.831 103.018H347.926C342.239 103.018 337.624 98.4029 337.624 92.7163V10.3018C337.624 4.61523 342.239 1.52588e-05 347.926 1.52588e-05H378.831C384.518 1.52588e-05 389.133 4.61523 389.133 10.3018Z" fill="#50758D"/>
<path d="M0.754517 154.527V481.095C0.754517 498.165 14.5898 512 31.6599 512H43.0744C28.6621 509.383 17.7525 496.774 17.7525 481.61V176.388C18.9166 173.246 21.935 171.01 25.4789 171.01H461.245V155.042V154.527H0.754517Z" fill="#E6E6E6"/>
<path d="M99.6519 103.018H83.169C77.4824 103.018 72.8672 98.4029 72.8672 92.7163V10.3018C72.8672 4.61523 77.4824 1.52588e-05 83.169 1.52588e-05H89.3501V92.7163C89.3501 98.4029 93.9653 103.018 99.6519 103.018Z" fill="#2B597F"/>
<path d="M364.408 103.018H347.926C342.239 103.018 337.624 98.4029 337.624 92.7163V10.3018C337.624 4.61523 342.239 1.52588e-05 347.926 1.52588e-05H354.107V92.7163C354.107 98.4029 358.722 103.018 364.408 103.018Z" fill="#2B597F"/>
<path d="M207.09 229.767L181.036 258.446L175.322 251.558C174.372 250.412 172.831 250.412 171.881 251.558L164.713 260.2C163.762 261.346 163.762 263.204 164.713 264.351L175.495 277.35C176.956 279.112 178.877 280 180.801 280C182.61 280 184.422 279.215 185.859 277.635L217.207 243.129C218.2 242.036 218.27 240.179 217.363 238.983L210.528 229.957C209.622 228.759 208.083 228.675 207.09 229.767Z" fill="#F8F6F6"/>
</svg>
