<svg width="512" height="496" viewBox="0 0 512 496" fill="none" xmlns="http://www.w3.org/2000/svg">
<path d="M461.919 209.458C489.578 209.458 512 231.88 512 259.539V416.448C512 444.106 489.578 466.528 461.92 466.528H444.612L420.759 494.006C418.27 496.873 413.821 496.873 411.332 494.006L387.48 466.528H249.01C221.352 466.528 198.93 444.106 198.93 416.448V247.341C198.93 226.419 215.89 209.458 236.813 209.458H461.919Z" fill="#FD646F"/>
<path d="M228.7 408.589C228.7 427.763 244.244 443.306 263.417 443.306H504.178C495.289 457.262 479.691 466.528 461.919 466.528H444.611L420.758 494.006C418.27 496.873 413.82 496.873 411.331 494.006L387.479 466.528H249.01C221.352 466.528 198.93 444.106 198.93 416.448V247.341C198.93 227.486 214.207 211.21 233.647 209.6C228.7 247.341 228.7 253 228.7 304.17V408.589Z" fill="#FC4755"/>
<path d="M262.99 0H50.0802C22.422 0 0 22.422 0 50.0813V206.99C0 234.648 22.422 257.07 50.0802 257.07H67.3884L91.2407 284.548C93.7296 287.415 98.1792 287.415 100.668 284.548L124.52 257.07H262.99C290.648 257.07 313.07 234.648 313.07 206.99V50.0813C313.07 22.422 290.648 0 262.99 0V0Z" fill="#73D773"/>
<path d="M376.609 341.872L395.134 323.537C396.974 321.716 396.989 318.748 395.168 316.908L380.03 301.615C378.208 299.775 375.241 299.759 373.401 301.581L354.877 319.915L336.542 301.39C334.721 299.55 331.753 299.535 329.913 301.356L314.62 316.494C312.78 318.315 312.764 321.283 314.586 323.123L332.921 341.648L314.39 359.989C312.55 361.809 312.535 364.778 314.356 366.618L329.494 381.911C331.314 383.751 334.283 383.767 336.122 381.945L354.653 363.604L372.994 382.135C374.815 383.975 377.783 383.99 379.623 382.169L394.916 367.031C396.756 365.21 396.772 362.242 394.95 360.402L376.609 341.872Z" fill="#F8F6F6"/>
<path d="M189.715 80.3883L136.074 129.36L124.311 117.599C122.354 115.642 119.181 115.642 117.225 117.599L102.467 132.356C100.511 134.313 100.511 137.485 102.467 139.443L124.666 161.641C127.675 164.65 131.629 166.166 135.59 166.166C139.315 166.166 143.046 164.825 146.003 162.127L210.544 103.204C212.588 101.338 212.732 98.1681 210.866 96.125L196.793 80.7116C194.928 78.6665 191.759 78.5223 189.715 80.3883V80.3883Z" fill="#F8F6F6"/>
<path d="M67.6613 235.57C47.1732 235.57 30.5653 218.962 30.5653 198.474V29.518C30.5653 17.6326 36.161 7.06106 44.8542 0.272888C19.6519 2.88539 0 24.187 0 50.0813V206.99C0 234.648 22.422 257.07 50.0802 257.07H67.3884L91.2407 284.548C93.7296 287.415 98.1803 287.415 100.668 284.548L124.52 257.07H262.99C280.021 257.07 295.078 248.553 304.126 235.561L67.6613 235.57Z" fill="#6BC16B"/>
</svg>
